<?xml version="1.0" encoding="UTF-8" standalone="no"?>
<!-- Created with Inkscape (http://www.inkscape.org/) -->

<svg
   xmlns:dc="http://purl.org/dc/elements/1.1/"
   xmlns:cc="http://creativecommons.org/ns#"
   xmlns:rdf="http://www.w3.org/1999/02/22-rdf-syntax-ns#"
   xmlns:svg="http://www.w3.org/2000/svg"
   xmlns="http://www.w3.org/2000/svg"
   xmlns:sodipodi="http://sodipodi.sourceforge.net/DTD/sodipodi-0.dtd"
   xmlns:inkscape="http://www.inkscape.org/namespaces/inkscape"
   width="68mm"
   height="14mm"
   viewBox="0 0 68 14"
   version="1.1"
   id="svg1013"
   inkscape:version="0.92.2 (unknown)"
   sodipodi:docname="phedorabot_Alt.svg">
  <defs
     id="defs1007">
    <filter
       width="1.0725278"
       height="1.0714798"
       style="color-interpolation-filters:sRGB"
       x="-0.036263898"
       y="-0.035739914"
       id="filter4773-3-3"
       inkscape:collect="always">
      <feGaussianBlur
         stdDeviation="0.84760215"
         id="feGaussianBlur4775-6-6"
         inkscape:collect="always" />
    </filter>
  </defs>
  <sodipodi:namedview
     id="base"
     pagecolor="#ffffff"
     bordercolor="#666666"
     borderopacity="1.0"
     inkscape:pageopacity="0.0"
     inkscape:pageshadow="2"
     inkscape:zoom="11.2"
     inkscape:cx="39.177557"
     inkscape:cy="31.177683"
     inkscape:document-units="mm"
     inkscape:current-layer="layer1"
     showgrid="false"
     inkscape:window-width="1366"
     inkscape:window-height="663"
     inkscape:window-x="0"
     inkscape:window-y="27"
     inkscape:window-maximized="1" />
  <metadata
     id="metadata1010">
    <rdf:RDF>
      <cc:Work
         rdf:about="">
        <dc:format>image/svg+xml</dc:format>
        <dc:type
           rdf:resource="http://purl.org/dc/dcmitype/StillImage" />
        <dc:title />
      </cc:Work>
    </rdf:RDF>
  </metadata>
  <g
     inkscape:label="Layer 1"
     inkscape:groupmode="layer"
     id="layer1"
     transform="translate(0,-283)">
    <g
       style="display:inline;stroke:#6e6b6b;stroke-width:0.64051831;stroke-miterlimit:4;stroke-dasharray:none;stroke-opacity:1"
       id="g5201-6-7"
       transform="matrix(0.15612357,0,-0.05791907,0.15612357,-12.042117,260.90405)">
      <linearGradient
         id="linearGradient957"
         gradientUnits="userSpaceOnUse"
         x1="443.4296"
         y1="488.25589"
         x2="426.44403"
         y2="493.89767"
         gradientTransform="matrix(0.75,0,0.2783,0.75,-253.9227,-177.6472)">
        <stop
           offset="0"
           style="stop-color:#FF0000"
           id="stop871-5" />
        <stop
           offset="1"
           style="stop-color:#FF0000;stop-opacity:0"
           id="stop873-3" />
      </linearGradient>
      <path
         id="path5181-2-5"
         inkscape:connector-curvature="0"
         d="m 217.09,160.19 v 0.048 h -43.597 l -0.002,0.18 11.664,14.973 h 31.934 v 5.941 h -27.182 l 11.804,15.151 h 15.378 l 0.002,5.468 h -11.8 l 11.799,15.146 0.001,0.012 h 14.801 l 0.001,-22.922 h 3.973 c 3.234,0 5.846,-0.446 7.839,-1.336 2.016,-0.891 3.398,-2.168 4.148,-3.832 0.75,-1.664 1.126,-4.313 1.126,-7.945 l -0.001,-4.957 c 0,-3.563 -0.2,-6.188 -0.598,-7.875 -0.375,-1.711 -1.113,-3.164 -2.215,-4.359 -1.078,-1.195 -2.706,-2.109 -4.886,-2.742 -2.156,-0.633 -5.251,-0.949 -9.282,-0.949 z m 14.801,9.738 c 1.922,0 3.187,0.293 3.796,0.879 0.609,0.586 0.915,1.852 0.915,3.797 v 4.676 c 0,2.109 -0.27,3.504 -0.809,4.184 -0.516,0.656 -1.453,0.984 -2.812,0.984 -0.305,0 -0.668,-0.012 -1.09,-0.035 z"
         style="fill:#f9f9f9;stroke:#6e6b6b;stroke-width:0.64051831;stroke-miterlimit:4;stroke-dasharray:none;stroke-opacity:1" />
      <path
         id="path5183-9-6"
         inkscape:connector-curvature="0"
         d="m 267.012,160.189 v 12.797 c 1.219,-1.125 2.531,-1.969 3.937,-2.531 1.43,-0.563 2.953,-0.844 4.571,-0.844 2.484,0 4.594,0.633 6.328,1.898 1.758,1.266 2.824,2.73 3.199,4.396 0.398,1.64 0.598,4.652 0.598,9.034 l -10e-4,32.167 h -14.203 v -32.835 c 0,-2.719 -0.14,-4.465 -0.421,-5.237 -0.258,-0.774 -0.856,-1.161 -1.793,-1.161 -0.867,0 -1.453,0.398 -1.758,1.195 -0.304,0.797 -0.457,2.379 -0.457,4.746 v 33.292 H 252.81 v -56.917 z"
         style="fill:#f9f9f9;stroke:#6e6b6b;stroke-width:0.64051831;stroke-miterlimit:4;stroke-dasharray:none;stroke-opacity:1" />
      <path
         id="path5185-1-2"
         inkscape:connector-curvature="0"
         d="m 322.664,194.607 h -18.387 l 0.001,10.092 c 0,2.109 0.152,3.468 0.457,4.076 0.305,0.609 0.89,0.914 1.758,0.914 1.078,0 1.793,-0.397 2.145,-1.194 0.375,-0.82 0.561,-2.392 0.562,-4.712 v -6.151 h 13.465 v 3.445 c 0,2.883 -0.188,5.098 -0.563,6.645 -0.351,1.548 -1.195,3.199 -2.531,4.957 -1.336,1.759 -3.035,3.082 -5.098,3.974 -2.039,0.867 -4.606,1.301 -7.7,1.301 -3,0 -5.648,-0.434 -7.945,-1.301 -2.297,-0.867 -4.09,-2.051 -5.379,-3.551 -1.266,-1.523 -2.145,-3.188 -2.637,-4.992 -0.493,-1.828 -0.738,-4.478 -0.739,-7.945 V 186.56 c 0,-4.078 0.551,-7.289 1.652,-9.633 1.102,-2.367 2.906,-4.172 5.414,-5.414 2.508,-1.266 5.391,-1.898 8.649,-1.898 3.984,0 7.265,0.762 9.844,2.285 2.601,1.5 4.418,3.504 5.449,6.012 1.054,2.484 1.582,5.988 1.582,10.512 z m -14.238,-7.594 v -3.41 c 0,-2.414 -0.129,-3.973 -0.387,-4.676 -0.257,-0.703 -0.785,-1.055 -1.582,-1.055 -0.985,0 -1.594,0.306 -1.828,0.914 -0.234,0.587 -0.352,2.191 -0.351,4.817 v 3.41 z"
         style="fill:#f9f9f9;stroke:#6e6b6b;stroke-width:0.64051831;stroke-miterlimit:4;stroke-dasharray:none;stroke-opacity:1" />
      <path
         id="path5187-2-9"
         inkscape:connector-curvature="0"
         d="m 359.649,160.189 v 56.917 h -14.203 v -3.375 c -1.36,1.406 -2.789,2.461 -4.289,3.164 -1.5,0.703 -3.071,1.056 -4.711,1.056 -2.203,0 -4.113,-0.574 -5.73,-1.724 -1.617,-1.172 -2.659,-2.519 -3.129,-4.043 -0.446,-1.522 -0.668,-4.007 -0.668,-7.453 V 182.9 c 0,-3.587 0.223,-6.129 0.667,-7.63 0.469,-1.5 1.524,-2.813 3.164,-3.938 1.64,-1.148 3.598,-1.723 5.871,-1.723 1.758,0 3.363,0.316 4.816,0.949 1.477,0.633 2.813,1.582 4.008,2.848 v -13.219 z m -14.203,22.008 c 0,-1.712 -0.152,-2.859 -0.457,-3.445 -0.281,-0.586 -0.855,-0.879 -1.723,-0.879 -0.844,0 -1.418,0.27 -1.723,0.809 -0.281,0.516 -0.422,1.688 -0.422,3.516 v 22.852 c 0,1.898 0.14,3.151 0.422,3.762 0.281,0.586 0.82,0.879 1.617,0.879 0.914,0 1.524,-0.328 1.829,-0.983 0.305,-0.681 0.457,-2.321 0.457,-4.922 z"
         style="fill:#f9f9f9;stroke:#6e6b6b;stroke-width:0.64051831;stroke-miterlimit:4;stroke-dasharray:none;stroke-opacity:1" />
      <path
         id="path5189-7-1"
         inkscape:connector-curvature="0"
         d="m 396.879,186.837 v 11.426 c 0,4.196 -0.21,7.277 -0.632,9.246 -0.423,1.945 -1.325,3.773 -2.708,5.484 -1.384,1.688 -3.164,2.941 -5.345,3.762 -2.157,0.797 -4.641,1.195 -7.453,1.195 -3.14,0 -5.8,-0.34 -7.98,-1.021 -2.179,-0.702 -3.878,-1.745 -5.098,-3.129 -1.195,-1.405 -2.051,-3.094 -2.566,-5.063 -0.516,-1.991 -0.773,-4.969 -0.774,-8.93 v -11.953 c 0,-4.336 0.469,-7.723 1.406,-10.16 0.937,-2.437 2.624,-4.395 5.063,-5.871 2.436,-1.477 5.553,-2.215 9.35,-2.215 3.188,0 5.918,0.48 8.191,1.441 2.297,0.938 4.068,2.168 5.31,3.691 1.242,1.523 2.086,3.094 2.532,4.711 0.47,1.62 0.704,4.081 0.704,7.386 z m -14.203,-3.516 c 0,-2.391 -0.129,-3.891 -0.386,-4.5 -0.258,-0.632 -0.809,-0.949 -1.653,-0.949 -0.844,0 -1.406,0.317 -1.687,0.949 -0.282,0.609 -0.423,2.109 -0.422,4.5 v 21.059 c 0.002,2.203 0.141,3.645 0.424,4.324 0.282,0.656 0.833,0.984 1.652,0.984 0.844,0 1.395,-0.306 1.652,-0.914 0.281,-0.609 0.422,-1.922 0.422,-3.938 z"
         style="fill:#f9f9f9;stroke:#6e6b6b;stroke-width:0.64051831;stroke-miterlimit:4;stroke-dasharray:none;stroke-opacity:1" />
      <path
         id="path5191-0-2"
         inkscape:connector-curvature="0"
         d="m 415.793,170.454 -0.563,6.118 c 2.063,-4.384 5.052,-6.704 8.965,-6.962 v 16.418 c -2.602,0 -4.512,0.352 -5.731,1.055 -1.219,0.703 -1.969,1.688 -2.249,2.953 -0.281,1.243 -0.422,4.126 -0.422,8.648 v 18.422 H 401.59 l -10e-4,-46.652 z"
         style="fill:#f9f9f9;stroke:#6e6b6b;stroke-width:0.64051831;stroke-miterlimit:4;stroke-dasharray:none;stroke-opacity:1" />
      <path
         id="path5193-9-7"
         inkscape:connector-curvature="0"
         d="m 440.016,188.524 h -13.324 l -0.001,-3.129 c 0.001,-3.609 0.41,-6.387 1.231,-8.332 0.844,-1.969 2.519,-3.703 5.027,-5.203 2.508,-1.5 5.765,-2.25 9.774,-2.25 4.805,0 8.426,0.855 10.863,2.566 2.438,1.688 3.902,3.774 4.394,6.258 0.493,2.461 0.739,7.547 0.738,15.258 l 10e-4,23.415 h -13.816 v -4.147 c -0.867,1.663 -1.994,2.918 -3.376,3.762 -1.36,0.82 -2.989,1.23 -4.886,1.23 -2.484,0 -4.77,-0.692 -6.855,-2.074 -2.062,-1.406 -3.094,-4.465 -3.092,-9.176 l -0.002,-3.832 c 0,-3.492 0.551,-5.871 1.653,-7.138 1.102,-1.266 3.832,-2.742 8.192,-4.43 4.665,-1.828 7.16,-3.059 7.489,-3.691 0.328,-0.633 0.492,-1.922 0.491,-3.867 10e-4,-2.438 -0.187,-4.02 -0.561,-4.746 -0.35,-0.75 -0.951,-1.125 -1.792,-1.125 -0.961,0 -1.559,0.316 -1.793,0.949 -0.235,0.609 -0.352,2.215 -0.352,4.816 v 4.886 z m 4.5,6.399 c -2.273,1.664 -3.599,3.059 -3.972,4.184 -0.352,1.125 -0.528,2.742 -0.528,4.853 10e-4,2.414 0.154,3.974 0.457,4.676 0.327,0.703 0.962,1.056 1.899,1.056 0.891,0 1.464,-0.271 1.721,-0.81 0.281,-0.563 0.421,-2.017 0.422,-4.358 z"
         style="fill:#f9f9f9;stroke:#6e6b6b;stroke-width:0.64051831;stroke-miterlimit:4;stroke-dasharray:none;stroke-opacity:1" />
      <path
         id="path5195-3-0"
         inkscape:connector-curvature="0"
         d="m 477.809,160.189 v 13.465 c 1.172,-1.359 2.472,-2.367 3.902,-3.023 1.454,-0.68 3.024,-1.02 4.711,-1.02 1.945,0 3.634,0.305 5.063,0.914 1.43,0.609 2.52,1.465 3.269,2.566 0.751,1.102 1.196,2.181 1.336,3.235 0.165,1.055 0.247,3.305 0.246,6.75 v 21.022 c 0,3.422 -0.234,5.978 -0.704,7.664 -0.445,1.664 -1.513,3.117 -3.198,4.359 -1.689,1.219 -3.692,1.828 -6.012,1.828 -1.664,0 -3.223,-0.363 -4.676,-1.09 -1.43,-0.728 -2.742,-1.816 -3.938,-3.271 l -0.914,3.517 h -13.289 l -0.001,-56.919 h 14.204 z m 4.324,23.519 c 0,-2.414 -0.151,-3.983 -0.457,-4.711 -0.306,-0.75 -0.904,-1.125 -1.793,-1.125 -0.867,0 -1.429,0.328 -1.687,0.985 -0.258,0.632 -0.385,2.249 -0.387,4.851 l 10e-4,20.109 c 0,2.509 0.14,4.113 0.422,4.816 0.306,0.703 0.891,1.055 1.758,1.055 0.891,0 1.465,-0.362 1.723,-1.09 0.281,-0.727 0.423,-2.473 0.422,-5.238 z"
         style="fill:#999999;stroke:#6e6b6b;stroke-width:0.64051831;stroke-miterlimit:4;stroke-dasharray:none;stroke-opacity:1" />
      <path
         id="path5197-6-9"
         inkscape:connector-curvature="0"
         d="m 533.145,186.837 -0.002,11.426 c 0,4.196 -0.209,7.277 -0.631,9.246 -0.422,1.945 -1.326,3.773 -2.709,5.484 -1.383,1.688 -3.164,2.941 -5.344,3.762 -2.156,0.797 -4.641,1.195 -7.453,1.195 -3.141,0 -5.801,-0.34 -7.981,-1.021 -2.179,-0.702 -3.878,-1.745 -5.097,-3.129 -1.194,-1.405 -2.051,-3.094 -2.567,-5.063 -0.515,-1.991 -0.773,-4.969 -0.773,-8.93 l -0.001,-11.953 c 0.001,-4.336 0.469,-7.723 1.407,-10.16 0.938,-2.437 2.625,-4.395 5.062,-5.871 2.437,-1.477 5.555,-2.215 9.352,-2.215 3.188,0 5.917,0.48 8.191,1.441 2.297,0.938 4.067,2.168 5.309,3.691 1.242,1.523 2.086,3.094 2.531,4.711 0.472,1.62 0.706,4.081 0.706,7.386 z m -14.203,-3.516 c 0,-2.391 -0.129,-3.891 -0.386,-4.5 -0.258,-0.632 -0.809,-0.949 -1.653,-0.949 -0.845,0 -1.407,0.317 -1.687,0.949 -0.282,0.609 -0.424,2.109 -0.422,4.5 v 21.059 c 0,2.203 0.141,3.645 0.423,4.324 0.282,0.656 0.833,0.984 1.652,0.984 0.845,0 1.394,-0.306 1.652,-0.914 0.281,-0.609 0.422,-1.922 0.422,-3.938 z"
         style="fill:#999999;stroke:#6e6b6b;stroke-width:0.64051831;stroke-miterlimit:4;stroke-dasharray:none;stroke-opacity:1" />
      <path
         id="path5199-0-3"
         inkscape:connector-curvature="0"
         d="m 552.832,164.232 -10e-4,7.348 h 3.832 v 7.383 h -3.832 v 24.961 c 0,3.07 0.154,4.781 0.457,5.134 0.329,0.352 1.653,0.526 3.973,0.526 v 7.522 h -5.729 c -3.234,0 -5.543,-0.129 -6.926,-0.387 -1.385,-0.281 -2.602,-0.902 -3.657,-1.863 -1.055,-0.983 -1.711,-2.098 -1.969,-3.34 -0.258,-1.266 -0.385,-4.219 -0.386,-8.859 l 10e-4,-23.694 h -3.06 v -7.383 h 3.059 l 10e-4,-7.348 z"
         style="fill:#999999;stroke:#6e6b6b;stroke-width:0.64051831;stroke-miterlimit:4;stroke-dasharray:none;stroke-opacity:1" />
    </g>
    <g
       id="path5181-5-6-6"
       inkscape:connector-curvature="0"
       enable-background="new    "
       style="display:inline;opacity:0.23800001;stroke:#6e6b6b;stroke-width:0.64051831;stroke-miterlimit:4;stroke-dasharray:none;stroke-opacity:1;filter:url(#filter4773-3-3)"
       transform="matrix(0.15612357,0,0,0.15612357,-12.042117,259.00389)">
      <linearGradient
         id="linearGradient972"
         gradientUnits="userSpaceOnUse"
         x1="262.29541"
         y1="500.42581"
         x2="239.52771"
         y2="500.97095"
         gradientTransform="matrix(0.75,0,0.2783,0.75,-201.7678,-174.5479)">
        <stop
           offset="0"
           style="stop-color:#FF0000"
           id="stop888-0" />
        <stop
           offset="1"
           style="stop-color:#FF0000;stop-opacity:0"
           id="stop890-6" />
      </linearGradient>
      <polygon
         style="opacity:0.75;fill:#f9f9f9;stroke:#6e6b6b;stroke-width:0.64051831;stroke-miterlimit:4;stroke-dasharray:none;stroke-opacity:1"
         id="polygon835-2-2"
         points="112.273,193.559 118.457,208.711 133.833,208.711 131.806,214.178 120.007,214.178 126.187,229.324 126.183,229.336 140.984,229.336 149.49,206.414 149.49,206.412 159.71,172.418 147.3,172.418 147.281,172.465 103.685,172.465 103.615,172.645 109.724,187.617 141.66,187.617 139.455,193.559 "
         transform="translate(-12.286609,0.74455118)" />
      <polygon
         points="147.3,172.418 147.281,172.465 103.685,172.465 103.615,172.645 109.724,187.617 141.66,187.617 139.455,193.559 112.273,193.559 118.457,208.711 133.833,208.711 131.806,214.178 120.007,214.178 126.187,229.324 126.183,229.336 140.984,229.336 149.49,206.414 149.49,206.412 159.71,172.418 "
         id="polygon29-6-6"
         style="fill:#f9f9f9;stroke:#6e6b6b;stroke-width:0.64051831;stroke-miterlimit:4;stroke-dasharray:none;stroke-opacity:1" />
    </g>
  </g>
</svg>
